<svg xmlns="http://www.w3.org/2000/svg" version="1.1" id="Layer_1" x="0" y="0" width="240.522" height="41.75" viewBox="0 0 240.522 41.75" xml:space="preserve"><style>*{fill:#aaa}</style><g id="g3172" transform="translate(-11.792 -18.851)"><path d="M185.926 56.783L170.824 43.22v13.085h-5.808V30.92l.785-.138 14.897 13.463V31.262h5.808v25.419l-.58.102z" id="path3174"/><path d="M216.681 43.8c0 1.845-.312 3.554-.938 5.125-.628 1.572-1.51 2.934-2.648 4.084-1.138 1.15-2.5 2.056-4.082 2.716-1.584.66-3.343.991-5.279.991s-3.69-.331-5.262-.991c-1.572-.66-2.91-1.565-4.014-2.716-1.105-1.15-1.954-2.512-2.547-4.084-.592-1.571-.889-3.28-.889-5.125 0-1.845.313-3.559.94-5.142.626-1.583 1.503-2.949 2.631-4.1 1.128-1.151 2.488-2.056 4.083-2.717 1.594-.66 3.36-.99 5.295-.99 1.938 0 3.685.33 5.245.99 1.56.661 2.893 1.566 3.998 2.717 1.104 1.15 1.958 2.517 2.562 4.1.603 1.583.905 3.297.905 5.142zm-6.218 0c0-1.138-.159-2.181-.478-3.125-.32-.945-.77-1.76-1.351-2.444a6.252 6.252 0 00-2.083-1.605c-.81-.387-1.715-.581-2.717-.581-.979 0-1.879.194-2.699.581a6.25 6.25 0 00-2.102 1.605c-.58.685-1.03 1.499-1.349 2.444-.319.944-.479 1.987-.479 3.125 0 1.116.16 2.147.479 3.093a7.56 7.56 0 001.349 2.46 6.1 6.1 0 002.102 1.622c.82.388 1.72.581 2.699.581 1.002 0 1.907-.193 2.717-.581a6.136 6.136 0 002.083-1.622c.581-.695 1.03-1.515 1.351-2.46.319-.946.478-1.977.478-3.093z" id="path3176"/><path d="M243.329 56.716l-.786.067-7.688-14.998-7.585 14.998-.751-.067-9.123-25.454h6.662l4.032 13.153 6.526-13.358h.614l6.561 13.257 3.998-13.052h6.525l-8.985 25.454z" id="path3178"/></g><path clip-rule="evenodd" d="M55.387 4.022c6.762 1.137 3.9 6.602 4.666 10.17 1.961-.649 3.945-1.789 5.979-1.885 5.154-.244 9.02 2.999 9.359 8.137.376 5.693.086 11.43.086 17.176-4.131.923-6.049-.543-6.101-4.829-.041-3.34.037-6.682-.065-10.02-.1-3.241-1.771-4.957-4.631-4.99-2.73-.03-4.607 1.846-4.666 4.979-.092 4.951-.023 9.905-.023 14.809-3.822.774-4.819.349-6.66-2.696V4.023l2.056-.001z" id="path3180" fill-rule="evenodd"/><path clip-rule="evenodd" d="M87.775 28.297c.915 5.163 7.169 6.521 14.001 3.07 1.338 2.762.022 5.506-3.339 6.465-4.976 1.42-9.724.918-13.626-2.764-3.852-3.633-4.531-8.288-3.376-13.229 1.995-8.538 10.977-12.458 17.8-7.847 3.336 2.255 4.468 5.497 3.931 9.355-.328 2.357-2.604 3.982-5.971 4.3-3.132.296-6.279.44-9.42.65zm-.366-4.822c2.373 0 4.592.152 6.775-.055 1.435-.137 3.328-.281 3.284-2.429-.042-2.088-1.437-3.191-3.383-3.55-3.708-.682-6.079 1.403-6.676 6.034z" id="path3182" fill-rule="evenodd"/><path clip-rule="evenodd" d="M121.68 22.061c.088-2.968-.746-4.143-3.732-4.498-3.396-.404-6.569.38-9.374 2.541-.629-4.631 1.975-7.38 7.235-7.825 7.783-.658 11.959 3.02 12.188 10.814.07 2.39-.01 4.785-.068 7.177-.068 2.774-1.427 4.873-3.641 6.415-3.85 2.681-11.146 2.207-14.675-.895-4.156-3.652-2.878-10.317 2.574-12.116 2.937-.968 6.157-1.077 9.493-1.613zm.933 4.855c-2.871.148-4.747-.068-6.396.444-1.06.329-2.327 1.647-2.488 2.682-.129.826 1.12 2.488 2.025 2.716 1.512.379 3.749.5 4.738-.356 1.158-1.003 1.304-3.171 2.121-5.486z" id="path3184" fill-rule="evenodd"/><path clip-rule="evenodd" d="M147.295 18.617c-.74-.117-1.413-.211-2.081-.331-3.832-.692-5.83.867-5.941 4.874-.112 4.013-.033 8.031-.038 12.047v2.468c-4.581.63-6.198-.687-6.209-4.848-.01-3.759-.069-7.521.027-11.277.133-5.158 3.253-8.57 8.259-9.023 3.729-.338 7.017 1.231 5.983 6.09z" id="path3186" fill-rule="evenodd"/><path d="M24.541 10.235c-5.751 0-10.413 4.662-10.413 10.414 0 5.75 4.662 10.412 10.413 10.412s10.412-4.662 10.412-10.412c0-5.752-4.662-10.414-10.412-10.414zm6.408 11.21l-9.121 5.243a1.141 1.141 0 01-1.708-.987V15.314a1.141 1.141 0 011.135-1.244h.004c.196 0 .393.051.568.151l9.121 5.246a1.142 1.142 0 01.001 1.978z" id="path3188"/><path d="M24.541 0C13.012 0 3.666 9.346 3.666 20.875c0 4.122 1.211 7.954 3.272 11.19C4.223 35.56 0 34.639 0 34.639c2.927 4.648 8.618 2.311 10.309 1.477 3.73 3.485 8.725 5.634 14.232 5.634 11.529 0 20.875-9.346 20.875-20.875S36.069 0 24.541 0zm14.151 29.175c-1.669-.495-3.428-.173-4.613 1.013-1.186 1.185-1.507 2.944-1.014 4.613a16.412 16.412 0 01-4.54 1.879c-.83-1.533-2.303-2.554-3.982-2.554-1.68 0-3.154 1.021-3.983 2.556a16.484 16.484 0 01-4.535-1.874c.502-1.676.183-3.444-1.007-4.635-1.19-1.19-2.959-1.509-4.634-1.006a16.445 16.445 0 01-1.875-4.528c1.539-.829 2.564-2.306 2.564-3.988 0-1.685-1.025-3.16-2.565-3.989a16.388 16.388 0 011.87-4.523c1.68.511 3.456.192 4.65-1.002 1.194-1.194 1.512-2.97 1.002-4.65a16.44 16.44 0 014.531-1.871c.831 1.528 2.302 2.544 3.977 2.544 1.676 0 3.147-1.016 3.978-2.544a16.41 16.41 0 014.537 1.874c-.508 1.68-.192 3.453 1.002 4.647 1.193 1.193 2.967 1.511 4.646 1.003a16.433 16.433 0 011.871 4.525c-1.534.83-2.554 2.303-2.554 3.981 0 1.68 1.021 3.153 2.554 3.983a16.377 16.377 0 01-1.88 4.546z" id="path3190"/></svg>